<mxfile host="app.diagrams.net" agent="Mozilla/5.0 (Macintosh; Intel Mac OS X 10_15_7) AppleWebKit/537.36 (KHTML, like Gecko) Chrome/134.0.0.0 Safari/537.36" version="26.1.3">
  <diagram id="C5RBs43oDa-KdzZeNtuy" name="Page-1">
    <mxGraphModel dx="652" dy="346" grid="1" gridSize="10" guides="1" tooltips="1" connect="1" arrows="1" fold="1" page="1" pageScale="1" pageWidth="827" pageHeight="1169" math="0" shadow="0">
      <root>
        <mxCell id="WIyWlLk6GJQsqaUBKTNV-0" />
        <mxCell id="WIyWlLk6GJQsqaUBKTNV-1" parent="WIyWlLk6GJQsqaUBKTNV-0" />
        <mxCell id="WIyWlLk6GJQsqaUBKTNV-3" value="데이터셋 구성&lt;br&gt;(1, 5, 10-shot)" style="rounded=1;whiteSpace=wrap;html=1;fontSize=12;glass=0;strokeWidth=1;shadow=0;" parent="WIyWlLk6GJQsqaUBKTNV-1" vertex="1">
          <mxGeometry x="160" y="80" width="90" height="70" as="geometry" />
        </mxCell>
        <mxCell id="35BothdgUHOsNcu1BIMu-1" value="" style="endArrow=classic;html=1;rounded=0;" edge="1" parent="WIyWlLk6GJQsqaUBKTNV-1">
          <mxGeometry width="50" height="50" relative="1" as="geometry">
            <mxPoint x="250" y="114.82" as="sourcePoint" />
            <mxPoint x="280" y="114.82" as="targetPoint" />
          </mxGeometry>
        </mxCell>
        <mxCell id="35BothdgUHOsNcu1BIMu-2" value="모델 선택 및&amp;nbsp;&lt;div&gt;초기화&lt;/div&gt;" style="rounded=1;whiteSpace=wrap;html=1;fontSize=12;glass=0;strokeWidth=1;shadow=0;" vertex="1" parent="WIyWlLk6GJQsqaUBKTNV-1">
          <mxGeometry x="280" y="80" width="90" height="70" as="geometry" />
        </mxCell>
        <mxCell id="35BothdgUHOsNcu1BIMu-4" value="" style="endArrow=classic;html=1;rounded=0;" edge="1" parent="WIyWlLk6GJQsqaUBKTNV-1">
          <mxGeometry width="50" height="50" relative="1" as="geometry">
            <mxPoint x="370" y="114.82" as="sourcePoint" />
            <mxPoint x="400" y="114.82" as="targetPoint" />
          </mxGeometry>
        </mxCell>
        <mxCell id="35BothdgUHOsNcu1BIMu-5" value="Few-shot&amp;nbsp;&lt;div&gt;Fine-Tuning 수행&lt;/div&gt;" style="rounded=1;whiteSpace=wrap;html=1;fontSize=12;glass=0;strokeWidth=1;shadow=0;" vertex="1" parent="WIyWlLk6GJQsqaUBKTNV-1">
          <mxGeometry x="400" y="80" width="90" height="70" as="geometry" />
        </mxCell>
        <mxCell id="35BothdgUHOsNcu1BIMu-6" value="검증셋 기반&lt;div&gt;Early Stopping&lt;/div&gt;" style="rounded=1;whiteSpace=wrap;html=1;fontSize=12;glass=0;strokeWidth=1;shadow=0;" vertex="1" parent="WIyWlLk6GJQsqaUBKTNV-1">
          <mxGeometry x="400" y="170" width="90" height="70" as="geometry" />
        </mxCell>
        <mxCell id="35BothdgUHOsNcu1BIMu-7" value="" style="endArrow=classic;html=1;rounded=0;" edge="1" parent="WIyWlLk6GJQsqaUBKTNV-1">
          <mxGeometry width="50" height="50" relative="1" as="geometry">
            <mxPoint x="444.77" y="150" as="sourcePoint" />
            <mxPoint x="444.77" y="170" as="targetPoint" />
          </mxGeometry>
        </mxCell>
        <mxCell id="35BothdgUHOsNcu1BIMu-9" value="" style="endArrow=classic;html=1;rounded=0;" edge="1" parent="WIyWlLk6GJQsqaUBKTNV-1">
          <mxGeometry width="50" height="50" relative="1" as="geometry">
            <mxPoint x="400" y="204.77" as="sourcePoint" />
            <mxPoint x="370" y="204.77" as="targetPoint" />
          </mxGeometry>
        </mxCell>
        <mxCell id="35BothdgUHOsNcu1BIMu-10" value="테스트셋 평가" style="rounded=1;whiteSpace=wrap;html=1;fontSize=12;glass=0;strokeWidth=1;shadow=0;" vertex="1" parent="WIyWlLk6GJQsqaUBKTNV-1">
          <mxGeometry x="280" y="170" width="90" height="70" as="geometry" />
        </mxCell>
        <mxCell id="35BothdgUHOsNcu1BIMu-11" value="" style="endArrow=classic;html=1;rounded=0;" edge="1" parent="WIyWlLk6GJQsqaUBKTNV-1">
          <mxGeometry width="50" height="50" relative="1" as="geometry">
            <mxPoint x="280" y="204.77" as="sourcePoint" />
            <mxPoint x="250" y="204.77" as="targetPoint" />
          </mxGeometry>
        </mxCell>
        <mxCell id="35BothdgUHOsNcu1BIMu-12" value="모델 별&lt;div&gt;성능 비교&lt;/div&gt;" style="rounded=1;whiteSpace=wrap;html=1;fontSize=12;glass=0;strokeWidth=1;shadow=0;" vertex="1" parent="WIyWlLk6GJQsqaUBKTNV-1">
          <mxGeometry x="160" y="170" width="90" height="70" as="geometry" />
        </mxCell>
      </root>
    </mxGraphModel>
  </diagram>
</mxfile>
